<?xml version="1.0" standalone="no"?><!DOCTYPE svg PUBLIC "-//W3C//DTD SVG 1.1//EN" "http://www.w3.org/Graphics/SVG/1.1/DTD/svg11.dtd"><svg t="1772757894352" class="icon" viewBox="0 0 1024 1024" version="1.1" xmlns="http://www.w3.org/2000/svg" p-id="4684" xmlns:xlink="http://www.w3.org/1999/xlink" width="200" height="200"><path d="M504.250182 791.272727h-139.636364c-20.945455 0-23.272727 16.290909-23.272727 16.290909V954.181818h-186.181818c-39.563636 0-69.818182-30.254545-69.818182-69.818182V439.854545c-44.218182-9.309091-74.472727-46.545455-74.472727-90.763636 0-27.927273 13.963636-55.854545 37.236363-74.472727l330.472728-256c32.581818-25.6 79.127273-25.6 114.036363 0l330.472727 256c39.563636 30.254545 48.872727 90.763636 16.29091 130.327273-13.963636 18.618182-34.909091 30.254545-55.854546 34.90909V884.363636c0 39.563636-30.254545 69.818182-69.818182 69.818182h-186.181818v-139.636363c0-11.636364-6.981818-20.945455-16.290909-23.272728h-4.654545m90.763636 93.090909h116.363636V384l55.854546-11.636364c4.654545 0 11.636364-4.654545 13.963636-9.309091 6.981818-9.309091 6.981818-25.6-4.654545-32.581818l-330.472728-256c-9.309091-6.981818-20.945455-6.981818-27.927272 0l-330.472728 256c-4.654545 4.654545-9.309091 11.636364-9.309091 18.618182 0 11.636364 6.981818 20.945455 18.618182 23.272727l55.854546 11.636364V884.363636h116.363636v-79.127272c4.654545-48.872727 44.218182-83.781818 93.090909-83.781819h148.945455c48.872727 4.654545 83.781818 44.218182 83.781818 93.09091v69.818181z m-93.090909-372.363636h-139.636364c-51.2 0-93.090909-41.890909-93.090909-93.090909v-46.545455c0-51.2 41.890909-93.090909 93.090909-93.090909h139.636364c51.2 0 93.090909 41.890909 93.090909 93.090909v46.545455c0 51.2-41.890909 93.090909-93.090909 93.090909z m-139.636364-162.909091c-13.963636 0-23.272727 9.309091-23.272727 23.272727v46.545455c0 13.963636 9.309091 23.272727 23.272727 23.272727h139.636364c13.963636 0 23.272727-9.309091 23.272727-23.272727v-46.545455c0-13.963636-9.309091-23.272727-23.272727-23.272727h-139.636364z" fill="#BDBDBD" p-id="4685"></path><path d="M756.363636 488.727273c16.290909 0 32.581818 2.327273 48.872728 4.654545v9.309091c0 34.909091 27.927273 62.836364 60.509091 62.836364 18.618182 0 37.236364-9.309091 48.872727-25.6 23.272727 16.290909 44.218182 37.236364 60.509091 62.836363-13.963636 11.636364-23.272727 30.254545-23.272728 51.2 0 34.909091 27.927273 62.836364 60.509091 62.836364h9.309091c2.327273 13.963636 2.327273 25.6 2.327273 39.563636 0 13.963636 0 25.6-2.327273 37.236364h-9.309091c-32.581818 0-60.509091 27.927273-60.509091 62.836364 0 20.945455 9.309091 39.563636 25.6 51.2-16.290909 25.6-37.236364 46.545455-62.836363 62.836363-11.636364-16.290909-27.927273-25.6-48.872727-25.6-32.581818 0-60.509091 27.927273-60.509091 62.836364v9.309091c-16.290909 2.327273-32.581818 4.654545-48.872728 4.654545s-32.581818-2.327273-48.872727-4.654545v-9.309091c0-34.909091-27.927273-62.836364-60.509091-62.836364-18.618182 0-37.236364 9.309091-48.872727 25.6-23.272727-18.618182-44.218182-39.563636-62.836364-62.836363 16.290909-11.636364 25.6-30.254545 25.6-51.2 0-34.909091-27.927273-62.836364-60.509091-62.836364h-9.309091c-2.327273-11.636364-2.327273-23.272727-2.327272-37.236364 0-20.945455 2.327273-41.890909 6.981818-62.836363h4.654545c32.581818 0 60.509091-27.927273 60.509091-62.836364 0-16.290909-4.654545-30.254545-13.963636-41.890909l4.654545-4.654545c13.963636-16.290909 30.254545-30.254545 46.545455-44.218182 11.636364 16.290909 27.927273 25.6 48.872727 25.6 32.581818 0 60.509091-27.927273 60.509091-62.836364v-9.309091c16.290909-2.327273 32.581818-4.654545 48.872727-4.654545z" fill="#BDBDBD" p-id="4686"></path><path d="M756.363636 756.363636m-104.727272 0a104.727273 104.727273 0 1 0 209.454545 0 104.727273 104.727273 0 1 0-209.454545 0Z" fill="#FFFFFF" p-id="4687"></path></svg>