<?xml version="1.0" standalone="no"?><!DOCTYPE svg PUBLIC "-//W3C//DTD SVG 1.1//EN" "http://www.w3.org/Graphics/SVG/1.1/DTD/svg11.dtd"><svg t="1772758024030" class="icon" viewBox="0 0 1024 1024" version="1.1" xmlns="http://www.w3.org/2000/svg" p-id="4832" xmlns:xlink="http://www.w3.org/1999/xlink" width="200" height="200"><path d="M926.190933 0A63.761067 63.761067 0 0 1 989.883733 63.6928V955.733333a63.761067 63.761067 0 0 1-63.6928 63.6928H225.297067A63.6928 63.6928 0 0 1 161.604267 955.733333v-159.266133h95.573333a63.761067 63.761067 0 0 0 63.2832-56.32l0.4096-7.441067a63.6928 63.6928 0 0 0-63.6928-63.6928h-95.573333V350.4128h95.573333a63.6928 63.6928 0 0 0 63.2832-56.251733L320.8704 286.72a63.6928 63.6928 0 0 0-63.6928-63.6928h-95.573333V63.6928A63.6928 63.6928 0 0 1 225.297067 0h700.893866zM527.854933 307.746133c-59.255467 10.513067-119.125333 17.544533-179.2 20.8896 4.027733 17.6128 7.031467 38.912 8.874667 63.6928 20.206933-1.2288 40.072533-2.8672 59.8016-4.7104v58.368h-64.580267v63.761067h52.224c-17.476267 45.738667-37.205333 76.936533-59.255466 110.045867 9.966933 28.945067 17.8176 56.797867 23.893333 83.694933 18.432-33.860267 34.338133-69.495467 47.786667-107.042133v192.170666h62.805333V598.903467c12.219733 13.789867 24.7808 28.672 37.819733 44.782933l55.773867-40.277333v97.4848h-43.963733v63.6928h332.5952v-63.6928h-37.819734V319.214933H573.7984V598.698667c-25.3952-24.029867-60.074667-42.939733-76.253867-56.456534l-17.408 17.339734v-49.834667h64.7168v-63.761067h-64.7168V380.245333c21.230933-3.003733 42.325333-6.3488 63.214934-10.24l-15.496534-62.190933z m231.082667 329.386667v63.761067h-119.466667v-63.761067h119.466667z m0-127.3856V573.44h-119.466667v-63.6928h119.466667z m0-127.453867v63.6928h-119.466667V382.293333h119.466667z" fill="#333333" p-id="4833"></path><path d="M66.030933 63.6928a31.880533 31.880533 0 0 1 31.812267 31.880533v159.266134h159.3344a31.880533 31.880533 0 0 1 0 63.761066H97.8432v382.293334h159.3344a31.812267 31.812267 0 1 1 0 63.6928H97.8432v159.266133a31.880533 31.880533 0 1 1-63.6928 0V95.573333A31.880533 31.880533 0 0 1 66.030933 63.6928z" fill="#333333" p-id="4834"></path></svg>